<svg id="Livello_1" data-name="Livello 1" xmlns="http://www.w3.org/2000/svg" viewBox="0 0 400 400"><defs><style>.cls-1{fill:none;stroke:#27aae1;stroke-linecap:round;stroke-linejoin:round;stroke-width:8px;}</style></defs><title>icone_agid_primo_piano</title><path class="cls-1" d="M287.61,315H100.34a10.55,10.55,0,0,1-10.55-10.55V95.55A10.55,10.55,0,0,1,100.34,85h154a10.55,10.55,0,0,1,10.55,10.55V292.36A22.64,22.64,0,0,0,287.57,315h0a22.64,22.64,0,0,0,22.64-22.64V223.92H284.7"/><rect class="cls-1" x="110.37" y="110.06" width="63.3" height="63.3"/><line class="cls-1" x1="193.72" y1="122.19" x2="239.08" y2="122.19"/><line class="cls-1" x1="193.72" y1="141.71" x2="239.08" y2="141.71"/><line class="cls-1" x1="193.72" y1="161.23" x2="239.08" y2="161.23"/><rect class="cls-1" x="188.44" y="195.25" width="55.92" height="94.95"/><line class="cls-1" x1="202.16" y1="223.47" x2="230.11" y2="223.47"/><line class="cls-1" x1="202.16" y1="242.99" x2="230.11" y2="242.99"/><line class="cls-1" x1="202.16" y1="262.51" x2="230.11" y2="262.51"/><circle class="cls-1" cx="142.41" cy="132.86" r="10.05"/><path class="cls-1" d="M126.06,160.08a16.36,16.36,0,0,1,32.71,0"/><line class="cls-1" x1="119.86" y1="205.54" x2="166.81" y2="205.54"/><line class="cls-1" x1="119.86" y1="230.4" x2="166.81" y2="230.4"/><line class="cls-1" x1="119.86" y1="255.26" x2="166.81" y2="255.26"/><line class="cls-1" x1="119.86" y1="280.12" x2="166.81" y2="280.12"/></svg>